D:\school\WTK\thesis\model\3dpredictsim\Results\batch_windlass\Pog_s1_tmt_bCst_d05_k1000_WL20_ig24_act_TTC_GRF.mot
nRows=12
nColumns=19

name D:\school\WTK\thesis\model\3dpredictsim\Results\batch_windlass\Pog_s1_tmt_bCst_d05_k1000_WL20_ig24_act_TTC_GRF.mot
datacolumns 19
datarows 12
range 0.0000000000 0.1368312786
endheader
time 	ground_force_vx	ground_force_vy	ground_force_vz	ground_force_px	ground_force_py	ground_force_pz	1_ground_force_vx	1_ground_force_vy	1_ground_force_vz	1_ground_force_px	1_ground_force_py	1_ground_force_pz	ground_torque_x	ground_torque_y	ground_torque_z	1_ground_torque_x	1_ground_torque_y	1_ground_torque_z
        0.0000000000	      -51.5763697913	       35.7950559919	        7.1828003209	        0.1634315498	        0.0000000000	        0.0609905862	       93.1498561941	      370.5742786794	       -2.0585097199	       -0.3793438667	        0.0000000000	       -0.0335166639	        0.0000000000	        0.0000000000	        0.0000000000	        0.0000000000	        0.0000000000	        0.0000000000	
        0.0124392071	     -123.0225870016	      103.1624360533	       20.8733521639	        0.1779282089	        0.0000000000	        0.0596518761	       58.8689598714	      269.1641103601	      -10.7783146074	       -0.3685008592	        0.0000000000	       -0.0295588696	        0.0000000000	        0.0000000000	        0.0000000000	        0.0000000000	        0.0000000000	        0.0000000000	
        0.0248784143	     -137.4494269561	      286.5095342447	       22.6255661394	        0.1947094446	        0.0000000000	        0.0601992832	       43.6353415667	      218.9459430498	      -16.2633007128	       -0.3639899192	        0.0000000000	       -0.0277701072	        0.0000000000	        0.0000000000	        0.0000000000	        0.0000000000	        0.0000000000	        0.0000000000	
        0.0373176214	     -114.8313840868	      661.2432712655	      -18.4648628537	        0.2081877755	        0.0000000000	        0.0617263278	       39.8820994934	      175.6367041342	      -14.5910648413	       -0.3638506134	        0.0000000000	       -0.0277353638	        0.0000000000	        0.0000000000	        0.0000000000	        0.0000000000	        0.0000000000	        0.0000000000	
        0.0497568286	     -145.4686823037	      893.0038128524	      -29.6295937062	        0.2171682567	        0.0000000000	        0.0622433557	       26.1979650844	      116.6754068545	      -14.8195934406	       -0.3639590906	        0.0000000000	       -0.0280309988	        0.0000000000	        0.0000000000	        0.0000000000	        0.0000000000	        0.0000000000	        0.0000000000	
        0.0621960357	     -182.7563103586	      980.8889471185	      -29.4447290600	        0.2282627330	        0.0000000000	        0.0613996263	        4.0166781807	       44.4123836397	      -10.2267502503	       -0.3650855791	        0.0000000000	       -0.0286403875	        0.0000000000	        0.0000000000	        0.0000000000	        0.0000000000	        0.0000000000	        0.0000000000	
        0.0746352429	     -174.2169469182	      962.6775836277	      -23.5009112986	        0.2379869620	        0.0000000000	        0.0599840993	        0.1785233171	       -0.1865746595	        0.0167617939	        0.0000000000	        0.0000000000	        0.0000000000	        0.0000000000	        0.0000000000	        0.0000000000	        0.0000000000	        0.0000000000	        0.0000000000	
        0.0870744500	     -145.7406802878	      863.3957287477	      -19.5981941577	        0.2431281858	        0.0000000000	        0.0590766891	        0.0001572031	       -0.0001399147	        0.0000020194	        0.0000000000	        0.0000000000	        0.0000000000	        0.0000000000	        0.0000000000	        0.0000000000	        0.0000000000	        0.0000000000	        0.0000000000	
        0.0995136572	     -121.0124834149	      774.4634396718	      -18.0874902616	        0.2471533039	        0.0000000000	        0.0585242880	        0.0000073323	       -0.0000057774	       -0.0000000653	        0.0000000000	        0.0000000000	        0.0000000000	        0.0000000000	        0.0000000000	        0.0000000000	        0.0000000000	        0.0000000000	        0.0000000000	
        0.1119528643	     -104.5791607687	      720.4706162083	      -17.1244719141	        0.2511152441	        0.0000000000	        0.0581422204	        0.0000028709	       -0.0000020641	       -0.0000000473	        0.0000000000	        0.0000000000	        0.0000000000	        0.0000000000	        0.0000000000	        0.0000000000	        0.0000000000	        0.0000000000	        0.0000000000	
        0.1243920715	      -90.5259437937	      686.6987491330	      -15.6473017553	        0.2546528096	        0.0000000000	        0.0578845614	        0.0000045068	       -0.0000030176	       -0.0000000618	        0.0000000000	        0.0000000000	        0.0000000000	        0.0000000000	        0.0000000000	        0.0000000000	        0.0000000000	        0.0000000000	        0.0000000000	
        0.1368312786	      -78.5081142562	      665.5943291808	      -16.7326046261	        0.2579435806	        0.0000000000	        0.0576709812	        0.0000119025	       -0.0000076121	       -0.0000000395	        0.0000000000	        0.0000000000	        0.0000000000	        0.0000000000	        0.0000000000	        0.0000000000	        0.0000000000	        0.0000000000	        0.0000000000	
